<svg width="19" height="17" viewBox="0 0 19 17" fill="none" xmlns="http://www.w3.org/2000/svg">
    <path fill-rule="evenodd" clip-rule="evenodd" d="M9.81937 1.16313C9.71752 1.26473 9.6367 1.38542 9.58156 1.5183C9.52643 1.65118 9.49804 1.79364 9.49804 1.9375C9.49804 2.08137 9.52643 2.22382 9.58156 2.3567C9.6367 2.48958 9.71752 2.61028 9.81937 2.71188L15.6097 8.5L9.81937 14.2881C9.71768 14.3898 9.63701 14.5105 9.58198 14.6434C9.52694 14.7763 9.49862 14.9187 9.49862 15.0625C9.49862 15.2063 9.52694 15.3487 9.58198 15.4816C9.63701 15.6145 9.71768 15.7352 9.81937 15.8369C9.92107 15.9386 10.0418 16.0192 10.1747 16.0743C10.3075 16.1293 10.4499 16.1576 10.5937 16.1576C10.7376 16.1576 10.88 16.1293 11.0128 16.0743C11.1457 16.0192 11.2664 15.9386 11.3681 15.8369L17.9306 9.27437C18.0325 9.17278 18.1133 9.05208 18.1684 8.9192C18.2236 8.78632 18.252 8.64387 18.252 8.5C18.252 8.35613 18.2236 8.21368 18.1684 8.0808C18.1133 7.94792 18.0325 7.82722 17.9306 7.72563L11.3681 1.16313C11.2665 1.06127 11.1458 0.980457 11.0129 0.925317C10.8801 0.870178 10.7376 0.841797 10.5937 0.841797C10.4499 0.841797 10.3074 0.870178 10.1746 0.925317C10.0417 0.980457 9.92097 1.06127 9.81937 1.16313Z" fill="#A8CCFF"/>
    <path fill-rule="evenodd" clip-rule="evenodd" d="M17.1562 8.5C17.1562 8.20992 17.041 7.93172 16.8359 7.7266C16.6308 7.52148 16.3526 7.40625 16.0625 7.40625H1.84375C1.55367 7.40625 1.27547 7.52148 1.07035 7.7266C0.865232 7.93172 0.75 8.20992 0.75 8.5C0.75 8.79008 0.865232 9.06828 1.07035 9.2734C1.27547 9.47852 1.55367 9.59375 1.84375 9.59375H16.0625C16.3526 9.59375 16.6308 9.47852 16.8359 9.2734C17.041 9.06828 17.1562 8.79008 17.1562 8.5Z" fill="#A8CCFF"/>
</svg>
