<svg width="18" height="15" viewBox="0 0 18 15" fill="none" xmlns="http://www.w3.org/2000/svg">
<path d="M10.1595 0.341417C9.78979 0.344767 9.42163 0.425598 9.07878 0.58393L7.79948 1.17475C7.75528 1.16847 7.71065 1.16575 7.66602 1.16661H0.166016V9.49995H0.999349L6.06283 13.9303C6.47793 14.2942 7.01242 14.4934 7.56348 14.4934C8.16649 14.4934 8.74751 14.2518 9.17318 13.8261H9.1748L11.8245 11.1666C11.8273 11.1666 11.83 11.1666 11.8327 11.1666H17.666V0.844347L14.3734 1.94135L11.2451 0.564399C10.8993 0.412171 10.5292 0.338068 10.1595 0.341417ZM10.1742 2.00808C10.3101 2.00661 10.4471 2.03336 10.5745 2.08946L14.292 3.72521L15.9993 3.15717V9.49995H13.4847L13.6426 9.34207C14.5854 8.39664 14.5291 6.8201 13.5238 5.942L10.3385 3.16043L7.64811 4.14187H7.64648C7.26805 4.27984 6.86226 4.12029 6.67643 3.76264L6.57878 3.57547L9.77702 2.0976C9.90333 2.03927 10.0382 2.00956 10.1742 2.00808ZM1.83268 2.83328H4.31478L5.19694 4.53087C5.76278 5.61989 7.06458 6.128 8.21777 5.70763L9.98372 5.0631L12.4284 7.19689C12.7263 7.45712 12.7414 7.88573 12.4626 8.16531H12.4609L7.99479 12.6477C7.87546 12.7671 7.73213 12.8268 7.56348 12.8268C7.41453 12.8268 7.27302 12.7748 7.16146 12.677L1.83268 8.01394V2.83328Z" fill="#BFC8D1"/>
</svg>
