<svg width="16" height="17" viewBox="0 0 16 17" fill="none" xmlns="http://www.w3.org/2000/svg">
<path d="M8.64258 0.5L0.654297 8.48828C0.339297 8.80328 0.166016 9.22167 0.166016 9.66667C0.166016 10.1117 0.339297 10.5301 0.654297 10.8451L5.6543 15.8451C5.9693 16.1601 6.38768 16.3333 6.83268 16.3333C7.27768 16.3333 7.69607 16.1601 8.01107 15.8451L15.9993 7.85677V0.5H8.64258ZM9.33268 2.16667H14.3327V7.16667L6.83268 14.6667L1.83268 9.66667L9.33268 2.16667ZM11.8327 3.83333C11.6117 3.83333 11.3997 3.92113 11.2434 4.07741C11.0871 4.23369 10.9993 4.44565 10.9993 4.66667C10.9993 4.88768 11.0871 5.09964 11.2434 5.25592C11.3997 5.4122 11.6117 5.5 11.8327 5.5C12.0537 5.5 12.2657 5.4122 12.4219 5.25592C12.5782 5.09964 12.666 4.88768 12.666 4.66667C12.666 4.44565 12.5782 4.23369 12.4219 4.07741C12.2657 3.92113 12.0537 3.83333 11.8327 3.83333Z" fill="#BFC8D1"/>
</svg>
