<svg width="21" height="14" viewBox="0 0 21 14" fill="none" xmlns="http://www.w3.org/2000/svg">
<path d="M10.5 0.333374C8.88917 0.333374 7.58333 1.63921 7.58333 3.25004C7.58333 4.86087 8.88917 6.16671 10.5 6.16671C12.1108 6.16671 13.4167 4.86087 13.4167 3.25004C13.4167 1.63921 12.1108 0.333374 10.5 0.333374ZM10.5 2.00004C11.1892 2.00004 11.75 2.56087 11.75 3.25004C11.75 3.93921 11.1892 4.50004 10.5 4.50004C9.81083 4.50004 9.25 3.93921 9.25 3.25004C9.25 2.56087 9.81083 2.00004 10.5 2.00004ZM4.25 2.83337C3.09917 2.83337 2.16667 3.76587 2.16667 4.91671C2.16667 6.06754 3.09917 7.00004 4.25 7.00004C5.40083 7.00004 6.33333 6.06754 6.33333 4.91671C6.33333 3.76587 5.40083 2.83337 4.25 2.83337ZM16.75 2.83337C15.5992 2.83337 14.6667 3.76587 14.6667 4.91671C14.6667 6.06754 15.5992 7.00004 16.75 7.00004C17.9008 7.00004 18.8333 6.06754 18.8333 4.91671C18.8333 3.76587 17.9008 2.83337 16.75 2.83337ZM4.25 4.26892C4.6075 4.26892 4.89779 4.55921 4.89779 4.91671C4.89779 5.27421 4.6075 5.56449 4.25 5.56449C3.8925 5.56449 3.60221 5.27421 3.60221 4.91671C3.60221 4.55921 3.8925 4.26892 4.25 4.26892ZM16.75 4.26892C17.1075 4.26892 17.3978 4.55921 17.3978 4.91671C17.3978 5.27421 17.1075 5.56449 16.75 5.56449C16.3925 5.56449 16.1022 5.27421 16.1022 4.91671C16.1022 4.55921 16.3925 4.26892 16.75 4.26892ZM10.5 7.83337C9.27106 7.83337 7.27152 8.2236 5.96224 8.99874C5.42794 8.79609 4.84271 8.66671 4.25 8.66671C2.38583 8.66671 0.5 9.83141 0.5 11.1097V13.6667H4.25H4.66667H5.5H16.3333H16.75H20.5V11.1097C20.5 9.83141 18.6142 8.66671 16.75 8.66671C16.1573 8.66671 15.5721 8.79609 15.0378 8.99874C13.7285 8.2236 11.7289 7.83337 10.5 7.83337ZM10.5 9.50004C12.2783 9.50004 14.3517 10.3012 14.6667 10.8054V12H6.33333V10.8054C6.64833 10.3012 8.72167 9.50004 10.5 9.50004ZM4.25 10.3334C4.41495 10.3334 4.56392 10.3617 4.71549 10.3855C4.68454 10.5029 4.66667 10.6245 4.66667 10.75V12H4.25H2.16667V11.1748C2.32 10.9082 3.165 10.3334 4.25 10.3334ZM16.75 10.3334C17.835 10.3334 18.68 10.9082 18.8333 11.1748V12H16.75H16.3333V10.75C16.3333 10.6245 16.3155 10.5029 16.2845 10.3855C16.4361 10.3617 16.585 10.3334 16.75 10.3334Z" fill="#BFC8D1"/>
</svg>
