<svg width="16" height="20" viewBox="0 0 16 20" fill="none" xmlns="http://www.w3.org/2000/svg">
<path d="M1.66667 0.833374C0.75 0.833374 0 1.58337 0 2.50004V14.1667H1.66667V2.50004H11.6667V0.833374H1.66667ZM5 4.16671C4.08333 4.16671 3.33333 4.91671 3.33333 5.83337V17.5C3.33333 18.4167 4.08333 19.1667 5 19.1667H14.1667C15.0833 19.1667 15.8333 18.4167 15.8333 17.5V8.33337L11.6667 4.16671H5ZM5 5.83337H10.8333V9.16671H14.1667V17.5H5V5.83337ZM6.66667 10.8334V12.5H12.5V10.8334H6.66667ZM6.66667 14.1667V15.8334H12.5V14.1667H6.66667Z" fill="#BFC8D1"/>
</svg>
