<svg width="17" height="18" viewBox="0 0 17 18" fill="none" xmlns="http://www.w3.org/2000/svg">
<path d="M8.49935 0.666626C3.90685 0.666626 0.166016 4.40746 0.166016 8.99996C0.166016 13.5925 3.90685 17.3333 8.49935 17.3333C13.0919 17.3333 16.8327 13.5925 16.8327 8.99996C16.8327 4.40746 13.0919 0.666626 8.49935 0.666626ZM8.49935 2.33329C12.1911 2.33329 15.166 5.30819 15.166 8.99996C15.166 12.6917 12.1911 15.6666 8.49935 15.6666C4.80758 15.6666 1.83268 12.6917 1.83268 8.99996C1.83268 5.30819 4.80758 2.33329 8.49935 2.33329ZM8.49935 3.99996C6.65768 3.99996 5.16602 5.49163 5.16602 7.33329H6.83268C6.83268 6.41663 7.58268 5.66663 8.49935 5.66663C9.41602 5.66663 10.166 6.41663 10.166 7.33329C10.166 8.99996 7.66602 9.30579 7.66602 11.5H9.33268C9.33268 10.1241 11.8327 9.41663 11.8327 7.33329C11.8327 5.49163 10.341 3.99996 8.49935 3.99996ZM7.66602 12.3333V14H9.33268V12.3333H7.66602Z" fill="#6FA7F5"/>
</svg>
