<svg width="20" height="20" viewBox="0 0 20 20" fill="none" xmlns="http://www.w3.org/2000/svg">
    <rect width="20" height="20" rx="2" fill="#983B84"/>
    <g clip-path="url(#clip0)">
        <path d="M9.96862 6.6311C8.13287 6.6311 6.65215 8.13403 6.65215 9.99731C6.65215 11.8606 8.13287 13.3635 9.96862 13.3635C11.8044 13.3635 13.2851 11.8606 13.2851 9.99731C13.2851 8.13403 11.8044 6.6311 9.96862 6.6311ZM9.96862 12.1858C8.78231 12.1858 7.81248 11.2043 7.81248 9.99731C7.81248 8.79028 8.77943 7.80884 9.96862 7.80884C11.1578 7.80884 12.1248 8.79028 12.1248 9.99731C12.1248 11.2043 11.1549 12.1858 9.96862 12.1858ZM14.1943 6.49341C14.1943 6.92993 13.8479 7.27856 13.4207 7.27856C12.9907 7.27856 12.6472 6.927 12.6472 6.49341C12.6472 6.05981 12.9936 5.70825 13.4207 5.70825C13.8479 5.70825 14.1943 6.05981 14.1943 6.49341ZM16.3908 7.29028C16.3418 6.23853 16.1051 5.30688 15.346 4.53931C14.5897 3.77173 13.6719 3.53149 12.6356 3.47876C11.5677 3.41724 8.36667 3.41724 7.29871 3.47876C6.26538 3.52856 5.3475 3.7688 4.58838 4.53638C3.82926 5.30395 3.59546 6.2356 3.54351 7.28735C3.48289 8.37134 3.48289 11.6204 3.54351 12.7043C3.59258 13.7561 3.82926 14.6877 4.58838 15.4553C5.3475 16.2229 6.26249 16.4631 7.29871 16.5159C8.36667 16.5774 11.5677 16.5774 12.6356 16.5159C13.6719 16.4661 14.5897 16.2258 15.346 15.4553C16.1022 14.6877 16.3389 13.7561 16.3908 12.7043C16.4515 11.6204 16.4515 8.37427 16.3908 7.29028ZM15.0111 13.8674C14.786 14.4416 14.3502 14.884 13.7815 15.1155C12.9301 15.4583 10.9096 15.3791 9.96862 15.3791C9.02766 15.3791 7.00429 15.4553 6.15569 15.1155C5.58996 14.887 5.15412 14.4446 4.92609 13.8674C4.58838 13.0032 4.66631 10.9524 4.66631 9.99731C4.66631 9.04224 4.59127 6.98853 4.92609 6.1272C5.15123 5.55298 5.58707 5.1106 6.15569 4.87915C7.00718 4.53638 9.02766 4.61548 9.96862 4.61548C10.9096 4.61548 12.9329 4.53931 13.7815 4.87915C14.3473 5.10767 14.7831 5.55005 15.0111 6.1272C15.3489 6.99145 15.2709 9.04224 15.2709 9.99731C15.2709 10.9524 15.3489 13.0061 15.0111 13.8674Z"
              fill="white"/>
    </g>
    <defs>
        <clipPath id="clip0">
            <rect width="12.931" height="15" fill="white" transform="translate(3.5 2.5)"/>
        </clipPath>
    </defs>
</svg>
