<svg width="141" height="32" viewBox="0 0 141 32" fill="none" xmlns="http://www.w3.org/2000/svg">
<g clip-path="url(#clip0)">
<path d="M24.9213 2.49378C25.2546 2.58798 25.2656 2.63837 25.4323 2.75668C27.5046 4.22238 29.3576 5.83706 30.8203 8.83199C33.1427 13.584 32.4365 17.6503 32.4015 17.9636C32.3664 18.2769 32.3313 18.393 32.1076 18.4478C31.8839 18.5025 31.6975 18.1761 31.5703 18.0074C30.8445 17.0522 29.5945 15.0672 27.5836 12.9311C25.645 10.8717 23.0507 8.59319 20.5376 8.43544C17.5902 8.25141 16.5354 11.0623 13.9828 11.759C11.7241 12.3746 10.6298 10.9002 10.5377 10.795C10.4456 10.6899 10.3754 10.5584 10.3908 10.4576C10.4061 10.3568 10.5728 10.2867 10.836 10.1049C12.3754 9.04232 12.7657 8.41792 14.0574 6.78133C15.2833 5.22799 16.3052 3.55416 17.1429 3.14009C17.9784 2.72601 18.9411 2.44777 20.7547 2.34699C22.0551 2.27469 22.7371 2.32727 23.9652 2.40176C24.4652 2.43462 24.6318 2.41271 24.9213 2.49378Z" fill="#F47E1F"/>
<path d="M20.7284 0.556168C20.7525 0.562741 20.781 0.569314 20.8139 0.578077C21.0464 0.63504 21.4214 0.72925 21.3731 1.07541C21.3446 1.27259 21.1253 1.40404 20.8665 1.40404C20.5529 1.40404 19.8468 1.46319 19.1144 1.59027C17.9587 1.79183 17.1232 2.0153 16.4916 2.43814C15.7021 2.96614 15.0991 3.68475 13.2658 6.2656C11.7198 8.44334 10.3886 9.25178 9.91058 9.54316C9.86453 9.57164 9.82505 9.59574 9.79654 9.61327C9.75049 9.64394 9.70663 9.66804 9.66497 9.69214C9.53997 9.76444 9.43251 9.82798 9.31409 9.97696C9.14962 10.1829 9.2176 10.3604 9.28778 10.5115C9.29216 10.5225 9.29875 10.5378 9.30752 10.5553C9.4062 10.7766 9.71759 11.4777 10.4829 12.0583C11.3075 12.6849 12.1123 12.8755 12.9807 12.8558C15.0772 12.8098 16.4785 11.5719 17.3973 10.7591C17.485 10.6824 17.5662 10.6101 17.6451 10.5422C18.5508 9.76006 19.6451 9.16414 21.1187 9.49715C22.5924 9.83017 24.3095 10.8971 26.4059 13.0573C28.5024 15.2197 31.6931 19.8315 31.7545 19.9411C31.7743 19.9783 31.8028 20.0112 31.8291 20.0462C31.8861 20.1142 31.9453 20.1865 31.9519 20.296C31.9629 20.4581 31.9475 20.548 31.9015 20.721C31.5133 22.1802 30.555 23.8737 29.8949 24.8837C29.7721 25.0721 29.6822 25.1926 29.4805 25.1861C29.2941 25.1817 29.2283 25.1072 29.066 24.9297C29.0528 24.9144 29.0375 24.899 29.0243 24.8837C28.9585 24.8114 28.7327 24.52 28.384 24.0731C27.7064 23.2033 26.5704 21.7464 25.2766 20.1711C23.3161 17.7874 21.2196 15.7214 20.9959 15.5396C20.7723 15.3578 20.5047 15.2307 20.2723 15.5045C20.0398 15.7762 20.2832 16.1048 20.4302 16.2429C20.5815 16.3853 23.6406 19.7329 24.781 21.0168C25.9213 22.3007 28.4783 25.633 28.5835 25.7907C28.6164 25.8389 28.6493 25.8784 28.68 25.9112C28.7436 25.9835 28.7919 26.0383 28.7919 26.1544C28.7919 26.3253 28.748 26.391 28.6186 26.5378C27.6735 27.6223 27.0594 28.0933 26.4125 28.5929C26.2722 28.7002 26.1318 28.8098 25.9849 28.9259L25.9695 28.939C25.8051 29.0705 25.6559 29.1888 25.4827 29.18C25.3467 29.1713 25.2196 29.0814 25.0726 28.9763C25.0288 28.9434 24.9805 28.9105 24.9301 28.8777C24.7174 28.7353 21.8358 26.4327 20.0069 24.8267C18.4587 23.4684 16.5859 21.3586 15.9763 20.6728C15.8644 20.548 15.7964 20.4713 15.7789 20.4516C15.7679 20.4406 15.757 20.4296 15.7438 20.4143C15.6166 20.2807 15.382 20.0309 15.0991 20.3442C14.8294 20.6444 14.9807 20.835 15.0794 20.9642C15.0947 20.9839 15.1079 21.0015 15.1188 21.0168C15.2044 21.1439 17.1999 23.3304 19.0793 25.208C20.9586 27.0877 23.8862 29.2392 24.0068 29.3202C24.1275 29.4013 24.3314 29.673 24.3402 29.7957C24.3511 29.9162 24.2963 29.995 24.1231 30.098C22.9805 30.7794 21.3051 31.2789 20.4499 31.5111C20.4236 31.5177 20.3929 31.5287 20.3622 31.5396C20.2569 31.5747 20.1253 31.6185 20.0091 31.6031C19.8885 31.5878 19.6582 31.4783 19.5574 31.4257C18.7109 31.016 17.496 30.385 15.2482 28.5819C13.5509 27.1907 12.3031 25.5125 11.9106 24.9845C11.8448 24.8969 11.8053 24.8421 11.7877 24.8246C11.7833 24.8202 11.7812 24.8158 11.7768 24.8114C11.6649 24.6887 11.4785 24.485 11.1496 24.7325C10.8338 24.9713 11.0487 25.2912 11.1737 25.4752L11.1803 25.4862C11.1869 25.495 11.1935 25.5059 11.2 25.5147C11.3163 25.6921 12.2834 27.0154 13.8228 28.4899C15.0552 29.6708 16.6056 30.7356 17.2262 31.1211L17.2306 31.1233C17.3162 31.1759 17.757 31.4498 17.6166 31.7412C17.496 31.9931 17.178 31.9865 17.0289 31.9844C17.0048 31.9844 16.9872 31.9844 16.9719 31.9844C15.2753 32.0526 13.5787 31.814 11.9544 31.3125C11.6856 31.2295 11.5053 30.9798 11.4828 30.6996C11.3821 29.4416 10.8618 25.8128 8.17597 21.8734C5.72495 18.2782 2.22416 16.7463 0.967637 16.2898C0.690691 16.1892 0.49413 15.9299 0.502192 15.6356C0.548202 13.9562 0.858656 12.2014 1.48309 10.3976C4.30102 2.25191 13.439 -1.50983 20.7284 0.556168Z" fill="#005DE2"/>
<path d="M9.36848 30.2341C9.81568 30.4563 10.3103 30.0875 10.2339 29.5945C10.1056 28.7656 9.91235 27.8373 9.6252 27.0817C9.54845 26.8823 9.47828 26.8122 9.3489 26.8013C9.22171 26.7903 8.89933 26.9503 8.79407 27.062C8.7507 27.107 8.26696 27.5688 7.55444 28.2097C7.24291 28.49 7.2633 28.9869 7.61227 29.219C8.17196 29.5912 8.75806 29.9309 9.36848 30.2341ZM5.70846 27.7275C5.94731 27.9453 6.31065 27.9436 6.55565 27.7327C7.59351 26.8394 8.40541 26.1199 8.50023 26.0213C8.54408 25.9753 8.58793 25.9337 8.6296 25.8921C8.76775 25.7584 8.88399 25.6423 8.91689 25.5043C8.95855 25.3268 8.86205 25.1515 8.7546 24.9566L8.74363 24.939C8.64934 24.7659 8.56162 24.5994 8.47391 24.4329C8.0726 23.6705 7.69322 22.9475 6.73929 21.7688C6.60991 21.6089 6.55068 21.5519 6.37086 21.5191C6.24805 21.4972 6.18446 21.5366 6.09674 21.5892C6.05727 21.6133 6.01122 21.6418 5.9542 21.6659C5.84775 21.7142 4.44809 22.4367 2.99766 23.2157C2.67775 23.3875 2.55844 23.7873 2.74461 24.0989C3.54862 25.4444 4.54647 26.6678 5.70846 27.7275ZM2.61074 22.3688C2.27776 22.5469 1.86169 22.4109 1.71593 22.0628C1.08961 20.567 0.686562 18.9674 0.54126 17.313C0.539035 17.2876 0.552123 17.2626 0.574902 17.2512C0.656041 17.2052 0.743765 17.157 0.855605 17.1702C1.02666 17.1899 1.11656 17.2227 1.28761 17.2994C2.73496 17.9698 4.32045 19.2734 5.25246 20.1432C5.4257 20.3053 5.53316 20.4192 5.4915 20.6296C5.45202 20.8224 5.36431 20.8771 5.1494 21.0108C5.13186 21.0217 5.11211 21.0327 5.09237 21.0458C5.00466 21.1006 4.66037 21.2824 4.13187 21.5607C3.7246 21.7765 3.20575 22.0505 2.61074 22.3688Z" fill="#F47E1F"/>
<path d="M51.2021 15.2442C51.417 15.299 51.7723 15.4239 52.2722 15.6188C52.7722 15.8138 53.2832 16.0877 53.8095 16.4361C54.3358 16.7844 54.7941 17.2182 55.1867 17.7353C55.5792 18.2523 55.7744 18.8701 55.7744 19.5844C55.7744 20.211 55.6713 20.7828 55.4674 21.2998C55.2634 21.8169 54.963 22.2748 54.5726 22.6669C54.1801 23.0613 53.6999 23.3637 53.1275 23.5784C52.5573 23.7931 51.9148 23.9004 51.2021 23.9004C50.1144 23.9004 49.1034 23.7054 48.167 23.3133C47.2307 22.9211 46.4785 22.4413 45.9083 21.8717L48.1232 19.6523C48.5859 20.2066 49.0793 20.5615 49.6034 20.7236C50.1275 20.8836 50.5683 20.9646 50.9236 20.9646C51.4762 20.9646 51.8841 20.8573 52.1516 20.6426C52.4192 20.4279 52.5529 20.1693 52.5529 19.8648C52.5529 19.6501 52.463 19.4639 52.2854 19.3017C52.1078 19.1396 51.8972 19.006 51.6582 18.8986C51.417 18.7913 51.1736 18.7058 50.9236 18.6445C50.6736 18.5831 50.4696 18.524 50.3096 18.4692C50.0946 18.3969 49.735 18.272 49.2262 18.0946C48.7175 17.9171 48.2021 17.6564 47.6758 17.3168C47.1495 16.9772 46.6912 16.5478 46.2986 16.0307C45.9061 15.5137 45.7109 14.8871 45.7109 14.1553C45.7109 13.4039 45.8403 12.7575 46.1013 12.212C46.3622 11.6665 46.7065 11.2152 47.1364 10.858C47.5662 10.5009 48.0574 10.238 48.6122 10.0671C49.167 9.89624 49.7394 9.81299 50.3293 9.81299C51.2394 9.81299 52.0135 9.92034 52.6472 10.1329C53.281 10.3476 53.8029 10.5776 54.2152 10.8274C54.6801 11.1297 55.0726 11.4671 55.395 11.8418L53.145 14.0874C52.7876 13.6229 52.395 13.2834 51.9652 13.0708C51.5354 12.8561 51.0815 12.7488 50.599 12.7488C50.224 12.7488 49.8534 12.8386 49.4872 13.0161C49.121 13.1935 48.939 13.4805 48.939 13.8749C48.939 14.0896 49.0201 14.2736 49.1802 14.4248C49.3403 14.576 49.5376 14.7009 49.7679 14.7995C49.9982 14.898 50.2438 14.9835 50.5025 15.0536C50.7613 15.1237 50.9872 15.1916 51.2021 15.2442Z" fill="#005DE2"/>
<path d="M70.4882 10.1655V23.5518H67.2646V22.5287C66.7821 22.9406 66.2383 23.2758 65.6308 23.5343C65.0234 23.7928 64.3457 23.9243 63.5979 23.9243C62.723 23.9243 61.9291 23.7599 61.2164 23.4291C60.5037 23.0983 59.8919 22.6492 59.3831 22.0773C58.8743 21.5055 58.4818 20.8373 58.2055 20.0705C57.9292 19.3037 57.791 18.4821 57.791 17.6079V10.1655H61.0147V17.6014C61.0147 18.4405 61.326 19.17 61.9488 19.7944C62.5541 20.4013 63.2844 20.7037 64.1396 20.7037C65.0124 20.7037 65.7514 20.4013 66.3567 19.7944C66.9619 19.1876 67.2646 18.458 67.2646 17.6014V10.1655H70.4882Z" fill="#005DE2"/>
<path d="M93.609 10.1655L89.0806 23.5518H85.6771L82.8372 14.9329L79.9974 23.5518H76.6202L72.0918 10.1655H75.4689L78.3088 18.8129L81.1487 10.1655H84.5521L87.392 18.8129L90.2319 10.1655H93.609Z" fill="#005DE2"/>
<path d="M101.193 9.79297C102.177 9.79297 103.098 9.977 103.956 10.3429C104.813 10.7088 105.565 11.2127 106.21 11.8546C106.855 12.4965 107.359 13.2458 107.725 14.1025C108.092 14.9591 108.276 15.8793 108.276 16.8608C108.276 17.8248 108.092 18.734 107.725 19.5906C107.359 20.4473 106.853 21.1966 106.21 21.8407C105.565 22.4826 104.815 22.9865 103.956 23.3524C103.096 23.7183 102.175 23.9001 101.193 23.9001C100.208 23.9001 99.2869 23.7161 98.4295 23.3524C97.5698 22.9865 96.8199 22.4826 96.1751 21.8407C95.5304 21.1987 95.026 20.4495 94.6598 19.5906C94.2936 18.734 94.1094 17.8248 94.1094 16.8608C94.1094 15.8793 94.2936 14.9591 94.6598 14.1025C95.026 13.2458 95.5326 12.4965 96.1751 11.8546C96.8199 11.2127 97.5698 10.7088 98.4295 10.3429C99.2891 9.977 100.208 9.79297 101.193 9.79297ZM101.193 13.0136C100.12 13.0136 99.208 13.3882 98.458 14.1353C97.708 14.8846 97.333 15.7916 97.333 16.8608C97.333 17.9124 97.708 18.8107 98.458 19.56C98.8154 19.9346 99.2321 20.215 99.7036 20.4013C100.175 20.5875 100.673 20.6817 101.19 20.6817C101.708 20.6817 102.199 20.5875 102.664 20.4013C103.129 20.215 103.548 19.9346 103.925 19.56C104.675 18.8129 105.05 17.9124 105.05 16.8608C105.05 15.7916 104.675 14.8846 103.925 14.1353C103.14 13.3882 102.23 13.0136 101.193 13.0136Z" fill="#005DE2"/>
<path d="M115.341 10.1719C115.975 9.90464 116.694 9.771 117.499 9.771V12.9828C116.427 12.9828 115.517 13.3575 114.767 14.1067C114.017 14.8911 113.642 15.8025 113.642 16.8366V23.5538H110.418V16.8366V10.1456H113.642V11.1907C114.142 10.7788 114.707 10.4392 115.341 10.1719Z" fill="#005DE2"/>
<path d="M119.635 23.5518V4.81982H122.858V23.5518H119.635Z" fill="#005DE2"/>
<path d="M139.123 4.77588V23.5517H135.9V16.8652C135.9 15.7785 135.525 14.8693 134.773 14.1375C134.021 13.3882 133.119 13.0136 132.064 13.0136C130.992 13.0136 130.08 13.3882 129.328 14.1353C128.575 14.8846 128.2 15.7916 128.2 16.8608C128.2 17.9124 128.575 18.8107 129.325 19.56C129.683 19.9346 130.097 20.215 130.571 20.4013C131.045 20.5875 131.54 20.6817 132.058 20.6817C132.575 20.6817 133.049 20.5919 133.479 20.4144L134.63 23.2845C133.808 23.6963 132.86 23.9023 131.79 23.9023C130.808 23.9023 129.9 23.7183 129.069 23.3546C128.238 22.9887 127.518 22.4848 126.909 21.8429C126.299 21.2009 125.825 20.4516 125.486 19.5928C125.146 18.7362 124.975 17.827 124.975 16.863C124.975 15.8815 125.146 14.9613 125.486 14.1047C125.825 13.248 126.299 12.4987 126.907 11.8568C127.514 11.2149 128.236 10.711 129.067 10.3451C129.898 9.97922 130.806 9.79519 131.79 9.79519C132.648 9.79519 133.417 9.92884 134.097 10.1983C134.777 10.4678 135.376 10.8074 135.895 11.2171V4.77807H139.123V4.77588Z" fill="#005DE2"/>
</g>
<defs>
<clipPath id="clip0">
<rect width="140" height="32" fill="white" transform="translate(0.5)"/>
</clipPath>
</defs>
</svg>
