<svg width="15" height="16" viewBox="0 0 15 16" fill="none" xmlns="http://www.w3.org/2000/svg">
<path fill-rule="evenodd" clip-rule="evenodd" d="M3.96963 3.22727C4.17862 1.73763 5.73071 0.5 7.50009 0.5C9.26947 0.5 10.8216 1.73763 11.0305 3.22727H13.0783C13.8635 3.22727 14.5 3.83779 14.5 4.59091C14.5 4.65544 14.4952 4.71988 14.4857 4.78376L13.2671 14.3292C13.167 15.001 12.5672 15.5 11.8596 15.5H3.14055C2.43302 15.5 1.83316 15.001 1.7331 14.3292L0.51447 4.78376C0.403426 4.03821 0.943542 3.34748 1.72085 3.24098C1.78745 3.23185 1.85464 3.22727 1.92192 3.22727H3.96963ZM9.58146 3.22731C9.36536 2.50327 8.49394 1.86367 7.50012 1.86367C6.5063 1.86367 5.63488 2.50327 5.41878 3.22731H9.58146ZM1.92198 4.59103H3.94582V5.95467H5.36755V4.59103H9.63276V5.95467H11.0545V4.59103H13.0783L11.8597 14.1365H3.14061L1.92198 4.59103Z" fill="#BFC8D1"/>
<path d="M8.96679 8.68187V7.31824H10.3885V8.68187H8.96679Z" fill="#BFC8D1"/>
<path d="M9.87291 10.2485L11.0358 11.033C10.2425 12.1149 8.95084 12.7727 7.54506 12.7727C6.13928 12.7727 4.84764 12.1149 4.0543 11.033L5.21721 10.2485C5.74706 10.9711 6.60707 11.4091 7.54506 11.4091C8.48305 11.4091 9.34306 10.9711 9.87291 10.2485Z" fill="#BFC8D1"/>
<path d="M4.70138 7.31824V8.68187H6.12312V7.31824H4.70138Z" fill="#BFC8D1"/>
</svg>
