<svg width="32" height="32" viewBox="0 0 32 32" fill="none" xmlns="http://www.w3.org/2000/svg">
<path d="M20.7284 0.556168C20.7525 0.562741 20.781 0.569314 20.8139 0.578077C21.0464 0.63504 21.4214 0.72925 21.3731 1.07541C21.3446 1.27259 21.1253 1.40404 20.8665 1.40404C20.5529 1.40404 19.8468 1.46319 19.1144 1.59027C17.9587 1.79183 17.1232 2.0153 16.4916 2.43814C15.7021 2.96614 15.0991 3.68475 13.2658 6.2656C11.7198 8.44334 10.3886 9.25178 9.91058 9.54316C9.86453 9.57164 9.82505 9.59574 9.79654 9.61327C9.75049 9.64394 9.70663 9.66804 9.66497 9.69214C9.53997 9.76444 9.43251 9.82798 9.31409 9.97696C9.14962 10.1829 9.2176 10.3604 9.28778 10.5115C9.29216 10.5225 9.29875 10.5378 9.30752 10.5553C9.4062 10.7766 9.71759 11.4777 10.4829 12.0583C11.3075 12.6849 12.1123 12.8755 12.9807 12.8558C15.0772 12.8098 16.4785 11.5719 17.3973 10.7591C17.485 10.6824 17.5662 10.6101 17.6451 10.5422C18.5508 9.76006 19.6451 9.16414 21.1187 9.49715C22.5924 9.83017 24.3095 10.8971 26.4059 13.0573C28.5024 15.2197 31.6931 19.8315 31.7545 19.9411C31.7743 19.9783 31.8028 20.0112 31.8291 20.0462C31.8861 20.1142 31.9453 20.1865 31.9519 20.296C31.9629 20.4581 31.9475 20.548 31.9015 20.721C31.5133 22.1802 30.555 23.8737 29.8949 24.8837C29.7721 25.0721 29.6822 25.1926 29.4805 25.1861C29.2941 25.1817 29.2283 25.1072 29.066 24.9297C29.0528 24.9144 29.0375 24.899 29.0243 24.8837C28.9585 24.8114 28.7327 24.52 28.384 24.0731C27.7064 23.2033 26.5704 21.7464 25.2766 20.1711C23.3161 17.7874 21.2196 15.7214 20.9959 15.5396C20.7723 15.3578 20.5047 15.2307 20.2723 15.5045C20.0398 15.7762 20.2832 16.1048 20.4302 16.2429C20.5815 16.3853 23.6406 19.7329 24.781 21.0168C25.9213 22.3007 28.4783 25.633 28.5835 25.7907C28.6164 25.8389 28.6493 25.8784 28.68 25.9112C28.7436 25.9835 28.7919 26.0383 28.7919 26.1544C28.7919 26.3253 28.748 26.391 28.6186 26.5378C27.6735 27.6223 27.0594 28.0933 26.4125 28.5929C26.2722 28.7002 26.1318 28.8098 25.9849 28.9259L25.9695 28.939C25.8051 29.0705 25.6559 29.1888 25.4827 29.18C25.3467 29.1713 25.2196 29.0814 25.0726 28.9763C25.0288 28.9434 24.9805 28.9105 24.9301 28.8777C24.7174 28.7353 21.8358 26.4327 20.0069 24.8267C18.4587 23.4684 16.5859 21.3586 15.9763 20.6728C15.8644 20.548 15.7964 20.4713 15.7789 20.4516C15.7679 20.4406 15.757 20.4296 15.7438 20.4143C15.6166 20.2807 15.382 20.0309 15.0991 20.3442C14.8294 20.6444 14.9807 20.835 15.0794 20.9642C15.0947 20.9839 15.1079 21.0015 15.1188 21.0168C15.2044 21.1439 17.1999 23.3304 19.0793 25.208C20.9586 27.0877 23.8862 29.2392 24.0068 29.3202C24.1275 29.4013 24.3314 29.673 24.3402 29.7957C24.3511 29.9162 24.2963 29.995 24.1231 30.098C22.9805 30.7794 21.3051 31.2789 20.4499 31.5111C20.4236 31.5177 20.3929 31.5287 20.3622 31.5396C20.2569 31.5747 20.1253 31.6185 20.0091 31.6031C19.8885 31.5878 19.6582 31.4783 19.5574 31.4257C18.7109 31.016 17.496 30.385 15.2482 28.5819C13.5509 27.1907 12.3031 25.5125 11.9106 24.9845C11.8448 24.8969 11.8053 24.8421 11.7877 24.8246C11.7833 24.8202 11.7812 24.8158 11.7768 24.8114C11.6649 24.6887 11.4785 24.485 11.1496 24.7325C10.8338 24.9713 11.0487 25.2912 11.1737 25.4752L11.1803 25.4862C11.1869 25.495 11.1935 25.5059 11.2 25.5147C11.3163 25.6921 12.2834 27.0154 13.8228 28.4899C15.0552 29.6708 16.6056 30.7356 17.2262 31.1211L17.2306 31.1233C17.3162 31.1759 17.757 31.4498 17.6166 31.7412C17.496 31.9931 17.178 31.9865 17.0289 31.9844C17.0048 31.9844 16.9872 31.9844 16.9719 31.9844C15.2753 32.0526 13.5787 31.814 11.9544 31.3125C11.6856 31.2295 11.5053 30.9798 11.4828 30.6996C11.3821 29.4416 10.8618 25.8128 8.17597 21.8734C5.72495 18.2782 2.22416 16.7463 0.967637 16.2898C0.690691 16.1892 0.49413 15.9299 0.502192 15.6356C0.548202 13.9562 0.858656 12.2014 1.48309 10.3976C4.30102 2.25191 13.439 -1.50983 20.7284 0.556168Z" fill="#005DE2"/>
</svg>
