<svg width="95" height="20" viewBox="0 0 95 20" fill="none" xmlns="http://www.w3.org/2000/svg">
<path d="M6.20209 11.2442C6.417 11.299 6.77225 11.4239 7.27224 11.6188C7.77224 11.8138 8.28318 12.0877 8.80949 12.4361C9.3358 12.7844 9.79412 13.2182 10.1867 13.7353C10.5792 14.2523 10.7744 14.8701 10.7744 15.5844C10.7744 16.211 10.6713 16.7828 10.4674 17.2998C10.2634 17.8169 9.96298 18.2748 9.57263 18.6669C9.1801 19.0613 8.69985 19.3637 8.12749 19.5784C7.55733 19.7931 6.9148 19.9004 6.20209 19.9004C5.11439 19.9004 4.10343 19.7054 3.16704 19.3133C2.23065 18.9211 1.47847 18.4413 0.908303 17.8717L3.12318 15.6523C3.58589 16.2066 4.07931 16.5615 4.60342 16.7236C5.12754 16.8836 5.56832 16.9646 5.92358 16.9646C6.4762 16.9646 6.88409 16.8573 7.15163 16.6426C7.41917 16.4279 7.55294 16.1693 7.55294 15.8648C7.55294 15.6501 7.46302 15.4639 7.28539 15.3017C7.10776 15.1396 6.89725 15.006 6.65822 14.8986C6.41699 14.7913 6.17358 14.7058 5.92358 14.6445C5.67358 14.5831 5.46964 14.524 5.30956 14.4692C5.09465 14.3969 4.73499 14.272 4.22623 14.0946C3.71747 13.9171 3.20212 13.6564 2.67581 13.3168C2.1495 12.9772 1.69118 12.5478 1.29864 12.0307C0.906106 11.5137 0.710938 10.8871 0.710938 10.1553C0.710938 9.40386 0.840317 8.75755 1.10128 8.21201C1.36224 7.66648 1.70654 7.21516 2.13635 6.85804C2.56617 6.50093 3.05739 6.23802 3.6122 6.06713C4.16702 5.89624 4.73938 5.81299 5.32928 5.81299C6.23935 5.81299 7.01347 5.92034 7.64723 6.13286C8.28099 6.34757 8.80291 6.57761 9.21519 6.82737C9.68009 7.12971 10.0726 7.46711 10.395 7.84175L8.14503 10.0874C7.78758 9.62295 7.39505 9.28336 6.96523 9.07084C6.53541 8.85614 6.08148 8.74878 5.59903 8.74878C5.22403 8.74878 4.85342 8.83861 4.4872 9.01607C4.12098 9.19353 3.93896 9.48054 3.93896 9.8749C3.93896 10.0896 4.0201 10.2736 4.18019 10.4248C4.34027 10.576 4.53763 10.7009 4.76789 10.7995C4.99815 10.898 5.24376 10.9835 5.50253 11.0536C5.7613 11.1237 5.98718 11.1916 6.20209 11.2442Z" fill="#005DE2"/>
<path d="M25.4882 6.16553V19.5518H22.2646V18.5287C21.7821 18.9406 21.2383 19.2758 20.6308 19.5343C20.0234 19.7928 19.3457 19.9243 18.5979 19.9243C17.723 19.9243 16.9291 19.7599 16.2164 19.4291C15.5037 19.0983 14.8919 18.6492 14.3831 18.0773C13.8743 17.5055 13.4818 16.8373 13.2055 16.0705C12.9292 15.3037 12.791 14.4821 12.791 13.6079V6.16553H16.0147V13.6014C16.0147 14.4405 16.326 15.17 16.9488 15.7944C17.5541 16.4013 18.2844 16.7037 19.1396 16.7037C20.0124 16.7037 20.7514 16.4013 21.3567 15.7944C21.9619 15.1876 22.2646 14.458 22.2646 13.6014V6.16553H25.4882Z" fill="#005DE2"/>
<path d="M48.609 6.16553L44.0806 19.5518H40.6771L37.8372 10.9329L34.9974 19.5518H31.6202L27.0918 6.16553H30.4689L33.3088 14.8129L36.1487 6.16553H39.5521L42.392 14.8129L45.2319 6.16553H48.609Z" fill="#005DE2"/>
<path d="M56.1926 5.79297C57.1772 5.79297 58.0983 5.977 58.9557 6.34288C59.8131 6.70876 60.5653 7.21267 61.21 7.8546C61.8548 8.49653 62.3592 9.24581 62.7254 10.1025C63.0916 10.9591 63.2758 11.8793 63.2758 12.8608C63.2758 13.8248 63.0916 14.734 62.7254 15.5906C62.3592 16.4473 61.8526 17.1966 61.21 17.8407C60.5653 18.4826 59.8153 18.9865 58.9557 19.3524C58.0961 19.7183 57.175 19.9001 56.1926 19.9001C55.208 19.9001 54.2869 19.7161 53.4295 19.3524C52.5698 18.9865 51.8199 18.4826 51.1751 17.8407C50.5304 17.1987 50.026 16.4495 49.6598 15.5906C49.2936 14.734 49.1094 13.8248 49.1094 12.8608C49.1094 11.8793 49.2936 10.9591 49.6598 10.1025C50.026 9.24581 50.5326 8.49653 51.1751 7.8546C51.8199 7.21267 52.5698 6.70876 53.4295 6.34288C54.2891 5.977 55.208 5.79297 56.1926 5.79297ZM56.1926 9.01358C55.1202 9.01358 54.208 9.38822 53.458 10.1353C52.708 10.8846 52.333 11.7916 52.333 12.8608C52.333 13.9124 52.708 14.8107 53.458 15.56C53.8154 15.9346 54.2321 16.215 54.7036 16.4013C55.1751 16.5875 55.6729 16.6817 56.1904 16.6817C56.7079 16.6817 57.1991 16.5875 57.664 16.4013C58.129 16.215 58.5478 15.9346 58.925 15.56C59.675 14.8129 60.05 13.9124 60.05 12.8608C60.05 11.7916 59.675 10.8846 58.925 10.1353C58.1399 9.38822 57.2299 9.01358 56.1926 9.01358Z" fill="#005DE2"/>
<path d="M70.3411 6.17193C70.9749 5.90464 71.6942 5.771 72.499 5.771V8.98283C71.4266 8.98283 70.5166 9.35747 69.7666 10.1067C69.0166 10.8911 68.6416 11.8025 68.6416 12.8366V19.5538H65.418V12.8366V6.14564H68.6416V7.19068C69.1416 6.7788 69.7074 6.43921 70.3411 6.17193Z" fill="#005DE2"/>
<path d="M74.6348 19.5518V0.819824H77.8584V19.5518H74.6348Z" fill="#005DE2"/>
<path d="M94.1235 0.775879V19.5517H90.8999V12.8652C90.8999 11.7785 90.5249 10.8693 89.7727 10.1375C89.0205 9.38824 88.1192 9.0136 87.0644 9.0136C85.992 9.0136 85.0798 9.38824 84.3276 10.1353C83.5754 10.8846 83.2004 11.7916 83.2004 12.8608C83.2004 13.9124 83.5754 14.8107 84.3254 15.56C84.6829 15.9346 85.0973 16.215 85.571 16.4013C86.0447 16.5875 86.5403 16.6817 87.0578 16.6817C87.5754 16.6817 88.049 16.5919 88.4788 16.4144L89.6301 19.2845C88.8078 19.6963 87.8604 19.9023 86.7903 19.9023C85.8078 19.9023 84.9 19.7183 84.0688 19.3546C83.2377 18.9887 82.5184 18.4848 81.9088 17.8429C81.2992 17.2009 80.8255 16.4516 80.4856 15.5928C80.1457 14.7362 79.9746 13.827 79.9746 12.863C79.9746 11.8815 80.1457 10.9613 80.4856 10.1047C80.8255 9.24802 81.2991 8.49874 81.9066 7.85681C82.514 7.21488 83.2355 6.71098 84.0666 6.3451C84.8978 5.97922 85.8056 5.79519 86.7903 5.79519C87.6477 5.79519 88.4174 5.92884 89.0973 6.19831C89.7771 6.46779 90.3757 6.80738 90.8955 7.21707V0.778069H94.1235V0.775879Z" fill="#005DE2"/>
</svg>
