<svg width="20" height="20" viewBox="0 0 20 20" fill="none" xmlns="http://www.w3.org/2000/svg">
    <rect width="20" height="20" rx="2" fill="#EB722E"/>
    <g clip-path="url(#clip0)">
        <path d="M5.95884 10.2087C5.63957 10.8363 6.00207 11.1363 6.82915 11.6488C7.53228 12.0832 8.50363 12.242 9.12759 12.3055C8.87186 12.5514 10.0437 11.4243 6.66874 14.6707C5.95311 15.3566 7.1052 16.4571 7.8203 15.7858L9.75624 13.9186C10.4974 14.6316 11.2078 15.3149 11.6922 15.7884C12.4078 16.4623 13.5594 15.3712 12.8516 14.6733C12.7984 14.6227 10.2281 12.1571 10.3849 12.3082C11.0167 12.2446 11.9734 12.0764 12.6682 11.6514L12.6677 11.6509C13.4948 11.1358 13.8573 10.8363 13.5427 10.2087C13.3526 9.85243 12.8401 9.55451 12.1578 10.0696C12.1578 10.0696 11.2364 10.7753 9.75051 10.7753C8.26405 10.7753 7.34322 10.0696 7.34322 10.0696C6.66145 9.55191 6.14686 9.85243 5.95884 10.2087Z" fill="white"/>
        <path d="M9.74964 9.82396C11.5611 9.82396 13.0403 8.40833 13.0403 6.66563C13.0403 4.91563 11.5611 3.5 9.74964 3.5C7.93766 3.5 6.4585 4.91563 6.4585 6.66563C6.4585 8.40833 7.93766 9.82396 9.74964 9.82396ZM9.74964 5.10365C10.6397 5.10365 11.3658 5.80208 11.3658 6.66563C11.3658 7.52188 10.6397 8.22031 9.74964 8.22031C8.85954 8.22031 8.1335 7.52188 8.1335 6.66563C8.13298 5.80156 8.85902 5.10365 9.74964 5.10365Z" fill="white"/>
    </g>
    <defs>
        <clipPath id="clip0">
            <rect width="12.5" height="12.5" fill="white" transform="translate(3.5 3.5)"/>
        </clipPath>
    </defs>
</svg>
