<svg width="16" height="16" viewBox="0 0 16 16" fill="none" xmlns="http://www.w3.org/2000/svg">
<path d="M1.83268 0.5V10.5H0.166016V13C0.166016 14.3783 1.28768 15.5 2.66602 15.5H13.4993C14.8702 15.5 15.9993 14.3708 15.9993 13V0.5H1.83268ZM3.49935 2.16667H14.3327V13C14.3327 13.4709 13.9702 13.8333 13.4993 13.8333C13.0393 13.8333 12.666 13.4592 12.666 13V10.5H3.49935V2.16667ZM5.16602 3.83333V5.5H6.83268V3.83333H5.16602ZM8.49935 3.83333V5.5H12.666V3.83333H8.49935ZM5.16602 7.16667V8.83333H6.83268V7.16667H5.16602ZM8.49935 7.16667V8.83333H12.666V7.16667H8.49935ZM1.83268 12.1667H10.9993V13C10.9993 13.2917 11.0501 13.5725 11.1426 13.8333H2.66602C2.20685 13.8333 1.83268 13.4592 1.83268 13V12.1667Z" fill="#BFC8D1"/>
</svg>
