<svg width="15" height="18" viewBox="0 0 15 18" fill="none" xmlns="http://www.w3.org/2000/svg">
<path d="M13.3333 2.50004H9.84667C9.5025 1.53087 8.58667 0.833374 7.5 0.833374C6.41333 0.833374 5.4975 1.53087 5.15333 2.50004H1.66667C0.745833 2.50004 0 3.24587 0 4.16671V15.8334C0 16.7542 0.745833 17.5 1.66667 17.5H13.3333C14.2542 17.5 15 16.7542 15 15.8334V4.16671C15 3.24587 14.2542 2.50004 13.3333 2.50004ZM5 13.3334H3.33333V11.6667H5V13.3334ZM4.16667 9.58337C3.47667 9.58337 2.91667 9.02337 2.91667 8.33337C2.91667 7.64337 3.47667 7.08337 4.16667 7.08337C4.85667 7.08337 5.41667 7.64337 5.41667 8.33337C5.41667 9.02337 4.85667 9.58337 4.16667 9.58337ZM7.5 2.50004C7.96 2.50004 8.33333 2.87337 8.33333 3.33337C8.33333 3.79337 7.96 4.16671 7.5 4.16671C7.04 4.16671 6.66667 3.79337 6.66667 3.33337C6.66667 2.87337 7.04 2.50004 7.5 2.50004ZM11.6667 13.3334H6.66667V11.6667H11.6667V13.3334ZM11.6667 9.16671H6.66667V7.50004H11.6667V9.16671ZM13.3333 15.8334H1.66667V4.16671H13.3333V15.8334Z" fill="#BFC8D1"/>
</svg>
