<svg width="17" height="18" viewBox="0 0 17 18" fill="none" xmlns="http://www.w3.org/2000/svg">
<path d="M1.83301 0.5C0.916341 0.5 0.174479 1.25 0.174479 2.16667L0.167969 12.165C0.167969 13.0859 0.913802 13.8333 1.83464 13.8333H3.49967V17.1667L6.83301 13.8333H15.1663C16.083 13.8333 16.833 13.0833 16.833 12.1667V2.16667C16.833 1.25 16.083 0.5 15.1663 0.5H1.83301ZM1.83301 2.16667H15.1663V12.1667H3.49967H1.83464L1.83301 2.16667ZM8.49967 3.05208L7.3929 5.6709L4.55436 5.91341L6.70605 7.77702L6.0599 10.5521L8.49967 9.08073L10.9395 10.5521L10.2933 7.77213L12.445 5.90853L9.60645 5.66602L8.49967 3.05208Z" fill="#BFC8D1"/>
</svg>
