<svg width="15" height="16" viewBox="0 0 15 16" fill="none" xmlns="http://www.w3.org/2000/svg">
<path d="M6.66667 0.5V1.33333V7.16667H10V8.58105L8.7207 10.5H6.66667H3.33333C2.70175 10.5 2.0201 10.6376 1.40788 10.8792C1.10177 11 0.81354 11.1433 0.551758 11.361C0.289975 11.5788 0 11.9281 0 12.4271V15.5H0.833333H6.66667V12.1667H8.7207C9.27681 12.1667 9.79836 11.8889 10.1074 11.4245L11.6667 9.08561V7.16667H15V0.5H6.66667ZM8.33333 2.16667H13.3333V5.5H8.33333V2.16667ZM3.33333 5.5C2.89131 5.5 2.46738 5.67559 2.15482 5.98816C1.84226 6.30072 1.66667 6.72464 1.66667 7.16667C1.66667 7.60869 1.84226 8.03262 2.15482 8.34518C2.46738 8.65774 2.89131 8.83333 3.33333 8.83333C3.77536 8.83333 4.19928 8.65774 4.51184 8.34518C4.8244 8.03262 5 7.60869 5 7.16667C5 6.72464 4.8244 6.30072 4.51184 5.98816C4.19928 5.67559 3.77536 5.5 3.33333 5.5ZM3.33333 12.1667H5V13.8333H1.66667V12.6159C1.73361 12.5679 1.84662 12.4964 2.01823 12.4287C2.40913 12.2745 2.97742 12.1667 3.33333 12.1667Z" fill="#005DE2"/>
</svg>
