<svg width="17" height="16" viewBox="0 0 17 16" fill="none" xmlns="http://www.w3.org/2000/svg">
<path d="M1.83268 0.5V3.83333L0.166016 7.16667V8.83333H0.999349V13.8333C0.999349 14.7542 1.74518 15.5 2.66602 15.5H14.3327C15.2535 15.5 15.9993 14.7542 15.9993 13.8333V8.83333H16.8327V7.16667L15.166 3.83333V0.5H1.83268ZM3.49935 2.16667H13.4993V3.83333H3.49935V2.16667ZM2.86296 5.5H14.1357L14.9691 7.16667H2.02962L2.86296 5.5ZM2.66602 8.83333H4.33268V12.1667H9.33268V8.83333H10.9993V13.8333H2.66602V8.83333ZM5.99935 8.83333H7.66602V10.5H5.99935V8.83333ZM12.666 8.83333H14.3327V13.8333H12.666V8.83333Z" fill="#BFC8D1"/>
</svg>
