<svg width="21" height="19" viewBox="0 0 21 19" fill="none" xmlns="http://www.w3.org/2000/svg">
<path d="M13.498 0.998047L7.49805 1.00391L5.66406 3H2.5C1.4 3 0.5 3.9 0.5 5V17C0.5 18.1 1.4 19 2.5 19H18.5C19.6 19 20.5 18.1 20.5 17V5C20.5 3.9 19.6 3 18.5 3H15.3438L13.498 0.998047ZM12.6211 2.99805L14.4668 5H18.5V17H2.5V5H6.54297L8.37891 3.00195L12.6211 2.99805ZM10.5 6C7.739 6 5.5 8.239 5.5 11C5.5 13.761 7.739 16 10.5 16C13.261 16 15.5 13.761 15.5 11C15.5 8.239 13.261 6 10.5 6ZM10.5 8C12.157 8 13.5 9.343 13.5 11C13.5 12.657 12.157 14 10.5 14C8.843 14 7.5 12.657 7.5 11C7.5 9.343 8.843 8 10.5 8Z" fill="#6FA7F5"/>
</svg>
