<svg width="19" height="17" viewBox="0 0 19 17" fill="none" xmlns="http://www.w3.org/2000/svg">
    <path fill-rule="evenodd" clip-rule="evenodd" d="M9.18063 1.16313C9.28248 1.26473 9.3633 1.38542 9.41844 1.5183C9.47357 1.65118 9.50196 1.79364 9.50196 1.9375C9.50196 2.08137 9.47357 2.22382 9.41844 2.3567C9.3633 2.48958 9.28248 2.61028 9.18063 2.71188L3.39031 8.5L9.18063 14.2881C9.28232 14.3898 9.36299 14.5105 9.41802 14.6434C9.47306 14.7763 9.50138 14.9187 9.50138 15.0625C9.50138 15.2063 9.47306 15.3487 9.41802 15.4816C9.36299 15.6145 9.28232 15.7352 9.18063 15.8369C9.07893 15.9386 8.95821 16.0192 8.82534 16.0743C8.69247 16.1293 8.55007 16.1576 8.40625 16.1576C8.26244 16.1576 8.12003 16.1293 7.98716 16.0743C7.85429 16.0192 7.73357 15.9386 7.63188 15.8369L1.06938 9.27437C0.96752 9.17278 0.886707 9.05208 0.831568 8.9192C0.776429 8.78632 0.748047 8.64387 0.748047 8.5C0.748047 8.35613 0.776429 8.21368 0.831568 8.0808C0.886707 7.94792 0.96752 7.82722 1.06938 7.72563L7.63188 1.16313C7.73348 1.06127 7.85417 0.980457 7.98705 0.925317C8.11993 0.870178 8.26239 0.841797 8.40625 0.841797C8.55012 0.841797 8.69257 0.870178 8.82545 0.925317C8.95833 0.980457 9.07903 1.06127 9.18063 1.16313Z" fill="#A8CCFF"/>
    <path fill-rule="evenodd" clip-rule="evenodd" d="M1.84375 8.5C1.84375 8.20992 1.95898 7.93172 2.1641 7.7266C2.36922 7.52148 2.64742 7.40625 2.9375 7.40625H17.1562C17.4463 7.40625 17.7245 7.52148 17.9296 7.7266C18.1348 7.93172 18.25 8.20992 18.25 8.5C18.25 8.79008 18.1348 9.06828 17.9296 9.2734C17.7245 9.47852 17.4463 9.59375 17.1562 9.59375H2.9375C2.64742 9.59375 2.36922 9.47852 2.1641 9.2734C1.95898 9.06828 1.84375 8.79008 1.84375 8.5Z" fill="#A8CCFF"/>
</svg>