<svg width="22" height="24" viewBox="0 0 22 24" fill="none" xmlns="http://www.w3.org/2000/svg">
    <path fill-rule="evenodd" clip-rule="evenodd" d="M5.45097 4.36364C5.7793 1.98021 8.21771 0 10.9975 0C13.7773 0 16.2157 1.98021 16.544 4.36364H19.7611C20.9947 4.36364 21.9947 5.34047 21.9947 6.54545C21.9947 6.6487 21.9872 6.75181 21.9723 6.85401L20.0577 22.1267C19.9005 23.2016 18.9581 24 17.8466 24H4.14844C3.03687 24 2.09446 23.2016 1.93726 22.1267L0.0227335 6.85401C-0.151723 5.66114 0.696827 4.55598 1.91802 4.38556C2.02265 4.37096 2.12821 4.36364 2.2339 4.36364H5.45097ZM14.2672 4.36346C13.9277 3.205 12.5587 2.18164 10.9973 2.18164C9.43601 2.18164 8.06696 3.205 7.72746 4.36346H14.2672ZM2.23391 6.54557H5.41345V8.72739H7.64707V6.54557H14.3479V8.72739H16.5816V6.54557H19.7611L17.8466 21.8183H4.14844L2.23391 6.54557Z" fill="#FF7F03"/>
    <path fill-rule="evenodd" clip-rule="evenodd" d="M13.3018 13.091V10.9092H15.5354V13.091H13.3018ZM14.7254 15.5977L16.5524 16.8528C15.3061 18.5839 13.2768 19.6364 11.0683 19.6364C8.85972 19.6364 6.83048 18.5839 5.58411 16.8528L7.41111 15.5977C8.24353 16.7538 9.59464 17.4546 11.0683 17.4546C12.5419 17.4546 13.893 16.7538 14.7254 15.5977ZM6.60079 10.9092V13.091H8.83441V10.9092H6.60079Z" fill="#FF7F03"/>
</svg>
