<svg width="20" height="20" viewBox="0 0 20 20" fill="none" xmlns="http://www.w3.org/2000/svg">
<path d="M7.05392 9.41089C7.99809 8.46672 9.64476 8.46672 10.5889 9.41089L11.1781 10.0001L12.3564 8.82172L11.7673 8.23255C10.9814 7.44589 9.93476 7.01172 8.82142 7.01172C7.70809 7.01172 6.66142 7.44589 5.87559 8.23255L4.10725 10.0001C3.3275 10.7823 2.88965 11.8418 2.88965 12.9463C2.88965 14.0508 3.3275 15.1103 4.10725 15.8926C4.49382 16.2797 4.95306 16.5866 5.4586 16.7957C5.96414 17.0047 6.50602 17.1119 7.05309 17.1109C7.60031 17.112 8.14235 17.005 8.64805 16.7959C9.15375 16.5868 9.61312 16.2798 9.99976 15.8926L10.5889 15.3034L9.41059 14.1251L8.82142 14.7142C8.35181 15.1817 7.71615 15.4442 7.05351 15.4442C6.39086 15.4442 5.7552 15.1817 5.28559 14.7142C4.81767 14.2448 4.55493 13.6091 4.55493 12.9463C4.55493 12.2835 4.81767 11.6478 5.28559 11.1784L7.05392 9.41089Z" fill="#FF7F03"/>
<path d="M10.0002 4.10745L9.41106 4.69662L10.5894 5.87495L11.1786 5.28579C11.6482 4.81828 12.2838 4.55581 12.9465 4.55581C13.6091 4.55581 14.2448 4.81828 14.7144 5.28579C15.1823 5.75518 15.4451 6.39093 15.4451 7.0537C15.4451 7.71648 15.1823 8.35223 14.7144 8.82162L12.9461 10.5891C12.0019 11.5333 10.3552 11.5333 9.41106 10.5891L8.82189 9.99995L7.64355 11.1783L8.23272 11.7675C9.01855 12.5541 10.0652 12.9883 11.1786 12.9883C12.2919 12.9883 13.3386 12.5541 14.1244 11.7675L15.8927 9.99995C16.6725 9.21769 17.1103 8.15822 17.1103 7.0537C17.1103 5.94919 16.6725 4.88972 15.8927 4.10745C15.1107 3.32729 14.0511 2.88916 12.9465 2.88916C11.8418 2.88916 10.7823 3.32729 10.0002 4.10745Z" fill="#FF7F03"/>
</svg>
