<svg width="132" height="24" viewBox="0 0 132 24" fill="none" xmlns="http://www.w3.org/2000/svg">
<path d="M37.0432 19.9406C40.4509 19.9406 43.182 18.406 43.182 15.2603C43.182 12.447 40.9771 11.6797 37.0432 10.759C35.0387 10.2986 34.4123 10.1707 34.4123 9.50578C34.4123 8.73851 35.2893 8.32931 36.7175 8.32931C38.3712 8.32931 39.1229 8.86639 39.3985 9.76153H43.0317C42.5556 7.15284 40.6764 5.26025 36.8428 5.26025C33.2096 5.26025 30.8041 6.97381 30.8041 9.94056C30.8041 12.3702 32.4078 13.2654 36.3166 14.2117C38.3963 14.7232 39.4737 14.7999 39.4737 15.7462C39.4737 16.5135 38.722 16.8971 37.1434 16.8971C34.9134 16.8971 34.0865 16.1298 33.8109 15.0045H30.1777C30.6789 18.0991 33.3599 19.9406 37.0432 19.9406Z" fill="#005DE2"/>
<path d="M54.5526 5.56716V12.9585C54.5526 15.2603 53.4751 16.4623 51.4957 16.4623C49.6415 16.4623 48.965 15.4393 48.965 13.5978V5.56716H45.3819V14.3907C45.3819 17.8178 47.2611 19.9406 50.293 19.9406C52.1973 19.9406 53.5503 19.1221 54.5526 17.6899V19.6337H58.1356V5.56716H54.5526Z" fill="#005DE2"/>
<path d="M78.1128 5.6266L76.9602 10.0512L75.7325 15.6522L74.5298 10.0512L73.3772 5.6266H69.0925L67.9399 10.0512L66.7372 15.7033L65.5094 10.0512L64.3568 5.6266H60.7988L64.5824 19.6931H68.7167L69.9945 14.9616L70.9968 9.25831H71.4729L72.4751 14.9616L73.753 19.6931H77.8873L81.6709 5.6266H78.1128Z" fill="#005DE2"/>
<path d="M89.7799 5.31969C85.821 5.31969 82.6138 8.41432 82.6138 12.6598C82.6138 16.8798 85.7709 20 89.7799 20C93.814 20 96.9711 16.9054 96.9711 12.6598C96.9711 8.41432 93.7639 5.31969 89.7799 5.31969ZM89.7799 8.79795C91.7845 8.79795 93.338 10.3581 93.338 12.6598C93.338 14.9872 91.7845 16.5217 89.7799 16.5217C87.7754 16.5217 86.2219 14.9872 86.2219 12.6598C86.2219 10.3581 87.7754 8.79795 89.7799 8.79795Z" fill="#005DE2"/>
<path d="M107.373 5.31969C105.419 5.31969 103.916 6.24041 103.064 8.08184V5.6266H99.4807V19.6931H103.064V13.4271C103.064 10.1023 105.018 9.07929 107.298 9.07929C107.699 9.07929 107.9 9.10486 108.175 9.13044V5.37085C107.95 5.34527 107.699 5.31969 107.373 5.31969Z" fill="#005DE2"/>
<path d="M110.15 19.6931H113.733V0H110.15V19.6931Z" fill="#005DE2"/>
<path d="M127.083 0V7.59591C126.131 6.24041 124.678 5.31969 122.723 5.31969C119.191 5.31969 116.459 8.31202 116.459 12.6598C116.459 16.9821 119.165 20 122.749 20C124.678 20 126.131 19.1304 127.083 17.8005V19.6931H130.666V0H127.083ZM123.55 16.5217C121.571 16.5217 120.068 14.9872 120.068 12.6598C120.068 10.3581 121.546 8.79795 123.55 8.79795C125.555 8.79795 127.083 10.3581 127.083 12.6598C127.083 14.9872 125.555 16.5217 123.55 16.5217Z" fill="#005DE2"/>
<path fill-rule="evenodd" clip-rule="evenodd" d="M5.47893 4.36364C5.80894 1.98021 8.25985 0 11.0539 0C13.8479 0 16.2989 1.98021 16.6289 4.36364H19.8624C21.1024 4.36364 22.1075 5.34047 22.1075 6.54545C22.1075 6.6487 22.1 6.75181 22.0849 6.85401L20.1606 22.1267C20.0026 23.2016 19.0553 24 17.9381 24H4.16971C3.05245 24 2.1052 23.2016 1.9472 22.1267L0.0228501 6.85401C-0.152501 5.66114 0.7004 4.55598 1.92786 4.38556C2.03303 4.37096 2.13913 4.36364 2.24536 4.36364H5.47893ZM14.3405 4.36346C13.9992 3.205 12.6232 2.18164 11.0538 2.18164C9.48448 2.18164 8.10841 3.205 7.76717 4.36346H14.3405ZM2.24528 6.54557H5.44113V8.72739H7.68621V6.54557H14.4214V8.72739H16.6665V6.54557H19.8624L17.938 21.8183H4.16963L2.24528 6.54557Z" fill="#F47E1F"/>
<path fill-rule="evenodd" clip-rule="evenodd" d="M13.3697 13.091V10.9092H15.6148V13.091H13.3697ZM14.8005 15.5977L16.6369 16.8528C15.3841 18.5839 13.3445 19.6364 11.1246 19.6364C8.90471 19.6364 6.86507 18.5839 5.6123 16.8528L7.44867 15.5977C8.28536 16.7538 9.6434 17.4546 11.1246 17.4546C12.6058 17.4546 13.9638 16.7538 14.8005 15.5977ZM6.63436 10.9092V13.091H8.87943V10.9092H6.63436Z" fill="#F47E1F"/>
</svg>
