<svg width="23" height="24" viewBox="0 0 23 24" fill="none" xmlns="http://www.w3.org/2000/svg">
<path fillRule="evenodd" clipRule="evenodd" d="M5.47893 4.36364C5.80894 1.98021 8.25985 0 11.0539 0C13.8479 0 16.2989 1.98021 16.6289 4.36364H19.8624C21.1024 4.36364 22.1075 5.34047 22.1075 6.54545C22.1075 6.6487 22.1 6.75181 22.0849 6.85401L20.1606 22.1267C20.0026 23.2016 19.0553 24 17.9381 24H4.16971C3.05245 24 2.1052 23.2016 1.9472 22.1267L0.0228501 6.85401C-0.152501 5.66114 0.7004 4.55598 1.92786 4.38556C2.03303 4.37096 2.13913 4.36364 2.24536 4.36364H5.47893ZM14.3405 4.36346C13.9992 3.205 12.6232 2.18164 11.0538 2.18164C9.48448 2.18164 8.10841 3.205 7.76717 4.36346H14.3405ZM2.24528 6.54557H5.44113V8.72739H7.68621V6.54557H14.4214V8.72739H16.6665V6.54557H19.8624L17.938 21.8183H4.16963L2.24528 6.54557Z" fill="#F47E1F"/>
<path fillRule="evenodd" clipRule="evenodd" d="M13.3697 13.091V10.9092H15.6148V13.091H13.3697ZM14.8005 15.5977L16.6369 16.8528C15.3841 18.5839 13.3445 19.6364 11.1246 19.6364C8.90471 19.6364 6.86507 18.5839 5.6123 16.8528L7.44867 15.5977C8.28536 16.7538 9.6434 17.4546 11.1246 17.4546C12.6058 17.4546 13.9638 16.7538 14.8005 15.5977ZM6.63436 10.9092V13.091H8.87943V10.9092H6.63436Z" fill="#F47E1F"/>
</svg>
