<svg width="46" height="46" viewBox="0 0 46 46" fill="none" xmlns="http://www.w3.org/2000/svg">
<path fill-rule="evenodd" clip-rule="evenodd" d="M5.81248 7.8125C5.81248 9.57083 6.39373 11.1938 7.37498 12.5H3.72915C2.76221 12.5 1.83488 12.8841 1.15115 13.5678C0.467426 14.2516 0.083313 15.1789 0.083313 16.1458V21.3542C0.083313 22.8083 0.935396 24.0625 2.16665 24.65V42.1875C2.16665 44.2 3.79998 45.8333 5.81248 45.8333H40.1875C41.1544 45.8333 42.0817 45.4492 42.7655 44.7655C43.4492 44.0818 43.8333 43.1544 43.8333 42.1875V24.65C45.0646 24.0646 45.9166 22.8083 45.9166 21.3542V16.1458C45.9166 15.1789 45.5325 14.2516 44.8488 13.5678C44.1651 12.8841 43.2377 12.5 42.2708 12.5H38.625C39.4955 11.3393 40.0256 9.95912 40.1559 8.51411C40.2862 7.06909 40.0115 5.61635 39.3627 4.31864C38.7138 3.02094 37.7164 1.92956 36.4823 1.16679C35.2481 0.404021 33.8259 0 32.375 0C29.3416 0 25.2166 1.87708 23 6.47917C20.7833 1.87708 16.6562 0 13.625 0C11.553 0 9.56584 0.8231 8.10071 2.28823C6.63558 3.75336 5.81248 5.7405 5.81248 7.8125ZM21.375 12.5C20.7771 5.22292 16.0208 3.125 13.625 3.125C12.3818 3.125 11.1895 3.61886 10.3104 4.49794C9.43134 5.37701 8.93748 6.5693 8.93748 7.8125C8.93748 9.0557 9.43134 10.248 10.3104 11.1271C11.1895 12.0061 12.3818 12.5 13.625 12.5H21.375ZM40.7083 25V42.1875C40.7083 42.3256 40.6534 42.4581 40.5558 42.5558C40.4581 42.6535 40.3256 42.7083 40.1875 42.7083H24.5625V25H40.7083ZM21.4375 42.7083V25H5.29165V42.1875C5.29165 42.475 5.52498 42.7083 5.81248 42.7083H21.4375ZM42.2708 21.875C42.4089 21.875 42.5414 21.8201 42.6391 21.7225C42.7368 21.6248 42.7916 21.4923 42.7916 21.3542V16.1458C42.7916 16.0077 42.7368 15.8752 42.6391 15.7775C42.5414 15.6799 42.4089 15.625 42.2708 15.625H24.5625V21.875H42.2708ZM3.72915 21.875H21.4375V15.625H3.72915C3.59101 15.625 3.45854 15.6799 3.36086 15.7775C3.26319 15.8752 3.20831 16.0077 3.20831 16.1458V21.3542C3.20831 21.6417 3.44165 21.875 3.72915 21.875ZM37.0625 7.8125C37.0625 9.0557 36.5686 10.248 35.6895 11.1271C34.8105 12.0061 33.6182 12.5 32.375 12.5H24.625C25.2229 5.22292 29.9791 3.125 32.375 3.125C33.6182 3.125 34.8105 3.61886 35.6895 4.49794C36.5686 5.37701 37.0625 6.5693 37.0625 7.8125Z" fill="#67768B"/>
</svg>
