<svg width="28" height="15" viewBox="0 0 28 15" fill="none" xmlns="http://www.w3.org/2000/svg">
    <path d="M6.85449 14.9406C10.2448 14.9406 12.962 13.406 12.962 10.2603C12.962 7.44695 10.7683 6.67969 6.85449 5.75898C4.8602 5.29862 4.23699 5.17074 4.23699 4.50578C4.23699 3.73851 5.10949 3.32931 6.53042 3.32931C8.17571 3.32931 8.92356 3.86639 9.19778 4.76153H12.8124C12.3388 2.15284 10.4691 0.260254 6.65506 0.260254C3.04041 0.260254 0.647263 1.97381 0.647263 4.94056C0.647263 7.37023 2.24269 8.26537 6.13156 9.21166C8.20063 9.72317 9.27257 9.7999 9.27257 10.7462C9.27257 11.5135 8.52471 11.8971 6.9542 11.8971C4.73556 11.8971 3.91291 11.1298 3.6387 10.0045H0.0240479C0.52262 13.0991 3.18998 14.9406 6.85449 14.9406Z" fill="#005DE2"/>
    <path d="M24.2745 0.567159V7.95846C24.2745 10.2603 23.2026 11.4623 21.2332 11.4623C19.3885 11.4623 18.7155 10.4393 18.7155 8.59785V0.567159H15.1507V9.39069C15.1507 12.8178 17.0203 14.9406 20.0367 14.9406C21.9312 14.9406 23.2774 14.1221 24.2745 12.6899V14.6337H27.8393V0.567159H24.2745Z" fill="#005DE2"/>
</svg>
