<svg width="70" height="20" viewBox="0 0 70 20" fill="none" xmlns="http://www.w3.org/2000/svg">
    <path d="M17.7147 5.6266L16.568 10.0512L15.3465 15.6522L14.1499 10.0512L13.0032 5.6266H8.74039L7.59367 10.0512L6.3971 15.7033L5.1756 10.0512L4.02888 5.6266H0.489014L4.25324 19.6931H8.36646L9.63782 14.9616L10.635 9.25831H11.1086L12.1058 14.9616L13.3771 19.6931H17.4903L21.2546 5.6266H17.7147Z" fill="#005DE2"/>
    <path d="M29.3223 5.31969C25.3836 5.31969 22.1927 8.41432 22.1927 12.6598C22.1927 16.8798 25.3337 20 29.3223 20C33.3358 20 36.4768 16.9054 36.4768 12.6598C36.4768 8.41432 33.2859 5.31969 29.3223 5.31969ZM29.3223 8.79795C31.3166 8.79795 32.8621 10.3581 32.8621 12.6598C32.8621 14.9872 31.3166 16.5217 29.3223 16.5217C27.328 16.5217 25.7824 14.9872 25.7824 12.6598C25.7824 10.3581 27.328 8.79795 29.3223 8.79795Z" fill="#005DE2"/>
    <path d="M46.8261 5.31969C44.8816 5.31969 43.3859 6.24041 42.5383 8.08184V5.6266H38.9735V19.6931H42.5383V13.4271C42.5383 10.1023 44.4828 9.07929 46.7513 9.07929C47.1501 9.07929 47.3496 9.10486 47.6238 9.13044V5.37085C47.3994 5.34527 47.1501 5.31969 46.8261 5.31969Z" fill="#005DE2"/>
    <path d="M49.5883 19.6931H53.1531V0H49.5883V19.6931Z" fill="#005DE2"/>
    <path d="M66.4353 0V7.59591C65.488 6.24041 64.0422 5.31969 62.0978 5.31969C58.5828 5.31969 55.8656 8.31202 55.8656 12.6598C55.8656 16.9821 58.5579 20 62.1227 20C64.0422 20 65.488 19.1304 66.4353 17.8005V19.6931H70.0001V0H66.4353ZM62.9204 16.5217C60.951 16.5217 59.4553 14.9872 59.4553 12.6598C59.4553 10.3581 60.9261 8.79795 62.9204 8.79795C64.9147 8.79795 66.4353 10.3581 66.4353 12.6598C66.4353 14.9872 64.9147 16.5217 62.9204 16.5217Z" fill="#005DE2"/>
</svg>

